# xmcd
#
# Track frame offsets:
#	150
#	22470
#	47148
#	61083
#	84232
#	99391
#	124276
#	149016
#	168958
#	186402
#	205264
#	225918
#	243792
#	262414
#	289250
#	309123
#	326455
#
# Disc length: 4580 seconds
#
# Revision: 1
# Processed by: cddbd v1.5PL3 Copyright (c) Steve Scherf et al.
# Submitted via: audiograbber 1.83.01
#
DISCID=f411e211
DTITLE=Mark Knopfler - The Best
DYEAR=1900
DGENRE=Country
TTITLE0=What It Is
TTITLE1=Salling To Philadelphia
TTITLE2=Who's Your Baby Now
TTITLE3=Baloney Again
TTITLE4=The Last Laught
TTITLE5=Silvertown Blues
TTITLE6=El Macho
TTITLE7=Prarie Wedding
TTITLE8=Wanderlust
TTITLE9=Speedway At Nazareth
TTITLE10=Junkie Doll
TTITLE11=Sands of Nevada
TTITLE12=One More Matinee
TTITLE13=You And Your Friend
TTITLE14=Ticket To Heaaven
TTITLE15=How Long
TTITLE16=Fade To Black
EXTD=
EXTT0=
EXTT1=
EXTT2=
EXTT3=
EXTT4=
EXTT5=
EXTT6=
EXTT7=
EXTT8=
EXTT9=
EXTT10=
EXTT11=
EXTT12=
EXTT13=
EXTT14=
EXTT15=
EXTT16=
PLAYORDER=
